# xmcd
#
# Track frame offsets:
# 183
# 18548
# 38268
# 58220
# 81903
# 99983
# 118130
# 137080
# 156018
# 176560
# 195590
# 215188
#
# Disc length: 3154 seconds
#
#
# Revision: 2
# Processed by: cddbd v1.5.1PL2 Copyright (c) Steve Scherf et al.
# Submitted via: FreeRIP 2.942 
#
DISCID=a30c500c
DTITLE=Casablanca Orchestra - European Hits
DYEAR=1993
DGENRE=Instrumental
TTITLE0=Et Maintenant - Les Feuilles Mortes
TTITLE1=Hey - O Me Quieres O Me Dejas
TTITLE2=Yesterday - Michele
TTITLE3=La Vie En Rose - L'hymne A L'amour
TTITLE4=Nem Às Paredes Confesso - Lisboa Antiga
TTITLE5=Swam Lake Theme - Moskauer Naechte
TTITLE6=Manuela - Por Ella
TTITLE7=And I Love Her - Here, There And Everywhere
TTITLE8=Champagne - Io Che Non Vivo (Senza Te)
TTITLE9=Sonate Au Clair De La Lune - Pour Elise
TTITLE10=Al Di La - Arrivederci Roma
TTITLE11=Coimbra - Olhos Castanhos
EXTD=
EXTT0=
EXTT1=
EXTT2=
EXTT3=
EXTT4=
EXTT5=
EXTT6=
EXTT7=
EXTT8=
EXTT9=
EXTT10=
EXTT11=
PLAYORDER=
